<?xml version="1.0" encoding="utf-8"?>
<!-- Generator: Adobe Illustrator 19.0.0, SVG Export Plug-In . SVG Version: 6.00 Build 0)  -->
<svg version="1.0" id="Arrow_1_" xmlns="http://www.w3.org/2000/svg" xmlns:xlink="http://www.w3.org/1999/xlink" x="0px" y="0px"
	 viewBox="-104 104.7 500 500" style="enable-background:new -104 104.7 500 500;" xml:space="preserve">
<style type="text/css">
	.st0{fill:#8F8F93;}
</style>
<g id="_x36_67-gear3.png">
	<g>
		<path class="st0" d="M383.5,375.8l-12.5-4.1c-7.4-2.4-12.4-9.3-12.4-17.1s5-14.6,12.5-17.1l12.5-4.1c8.6-2.8,13.8-11.4,12.2-20.2
			l-0.8-4.7c-1.6-8.8-9.4-15.1-18.4-14.8l-13.1,0.4c-7.8,0.3-14.9-4.5-17.6-11.8c-2.7-7.3-0.3-15.5,5.8-20.3l10.3-8.1
			c7.1-5.5,9-15.4,4.5-23.1l-2.4-4.1c-4.5-7.7-14-11-22.4-7.7l-12.2,4.9c-7.3,2.9-15.6,0.8-20.6-5.1c-5-5.9-5.6-14.4-1.5-21l7-11.1
			c4.8-7.6,3.1-17.5-3.8-23.3l-3.7-3c-6.9-5.7-17-5.6-23.7,0.4l-9.8,8.7c-5.8,5.2-14.3,6.1-21.1,2.2c-6.8-3.9-10.3-11.6-8.7-19.2
			l2.7-12.8c1.9-8.8-3.1-17.5-11.5-20.6l-4.5-1.6c-8.5-3-17.9,0.6-22.1,8.4l-6.2,11.7c-3.7,6.8-11.4,10.6-19.1,9.2
			c-7.7-1.3-13.6-7.5-14.7-15.2l-1.9-12.9c-1.3-8.8-8.9-15.4-17.9-15.4h-4.8c-9,0-16.6,6.6-17.9,15.4l-1.8,12.9
			c-1.1,7.7-7.1,13.8-14.8,15.2c-7.7,1.3-15.4-2.4-19.1-9.2l-6.2-11.5c-4.2-7.9-13.7-11.5-22.1-8.4l-4.5,1.7
			c-8.5,3.1-13.4,11.8-11.5,20.6l2.7,12.7c1.6,7.6-1.9,15.4-8.6,19.2c-6.8,3.9-15.3,3-21.1-2.2L8.9,161c-6.7-6-16.8-6.1-23.7-0.4
			l-3.7,3.1c-6.9,5.8-8.5,15.6-3.7,23.2l6.9,11.1c4.1,6.6,3.5,15.1-1.5,21c-5,6-13.3,8-20.6,5.1l-12.2-4.8
			C-58,216-67.5,219.2-72,227l-2.4,4.1c-4.6,7.7-2.6,17.6,4.4,23l10.3,8.1c6.2,4.8,8.5,13,5.8,20.3c-2.7,7.3-9.8,12.1-17.6,11.8
			l-13.1-0.4c-9-0.3-16.8,6-18.4,14.8l-0.8,4.7c-1.6,8.8,3.6,17.4,12.2,20.2l12.4,4.1c7.4,2.4,12.4,9.3,12.4,17.1
			c0,7.8-5,14.6-12.4,17.1l-12.4,4.1c-8.6,2.8-13.8,11.4-12.2,20.2l0.8,4.7c1.6,8.8,9.4,15.1,18.4,14.8l13.1-0.4
			c7.8-0.3,14.9,4.5,17.6,11.8c2.7,7.3,0.3,15.5-5.8,20.3l-10.3,8c-7.1,5.5-9,15.4-4.5,23.1l2.4,4.1c4.5,7.7,14,11,22.4,7.7
			l12.2-4.9c7.2-2.9,15.6-0.8,20.6,5.1c5,6,5.6,14.4,1.5,21l-7,11.1c-4.8,7.6-3.2,17.5,3.8,23.3l3.7,3.1c6.9,5.7,17,5.6,23.7-0.4
			l9.8-8.7c5.8-5.2,14.3-6.1,21.1-2.2c6.8,3.9,10.3,11.6,8.7,19.2l-2.7,12.8c-1.9,8.7,3.1,17.5,11.5,20.6l4.5,1.6
			c8.5,3.1,17.9-0.5,22.1-8.4L90,572c3.7-6.9,11.4-10.6,19.1-9.2c7.7,1.3,13.7,7.5,14.8,15.2l1.9,12.9c1.3,8.9,8.9,15.4,17.9,15.4
			h4.8c9,0,16.6-6.6,17.9-15.4l1.9-12.9c1.1-7.7,7.1-13.8,14.8-15.2c7.7-1.3,15.4,2.4,19.1,9.2l6.2,11.5c4.2,7.9,13.7,11.5,22.1,8.4
			l4.5-1.6c8.5-3.1,13.3-11.8,11.5-20.6l-2.7-12.8c-1.6-7.6,1.9-15.4,8.7-19.3c6.8-3.9,15.3-3,21.1,2.2l9.8,8.7
			c6.7,6,16.8,6.1,23.7,0.4l3.6-3.1c6.9-5.7,8.5-15.6,3.7-23.2l-7-11.1c-4.1-6.6-3.5-15.1,1.5-21s13.3-8,20.6-5.1l12.2,4.9
			c8.4,3.3,17.9,0,22.4-7.7l2.4-4.1c4.5-7.8,2.6-17.6-4.5-23.1l-10.3-8c-6.2-4.8-8.5-13-5.8-20.3s9.8-12.1,17.6-11.8l13.1,0.4
			c9,0.3,16.8-6.1,18.4-14.9l0.8-4.7C397.3,387.2,392.1,378.6,383.5,375.8z M146,318.8c20,0,36.2,16.1,36.2,35.9
			S166,390.6,146,390.6s-36.2-16.1-36.2-35.9S126,318.8,146,318.8z M61.7,408.8l-35.1,48c-3.4,4.7-9,7.5-14.8,7.4
			c-5.9-0.1-11.3-2.9-14.7-7.8c-20.1-28.9-32-63.9-32-101.7c0-4.8,2.3-9.3,6.2-12.1c3.9-2.8,8.9-3.6,13.5-2.1l61,19.7
			c6.2,2,10.8,7.1,12.1,13.4c1.3,6.1,3.2,11.9,5.6,17.4C66.3,396.8,65.5,403.6,61.7,408.8z M68.2,291.8l-56.8-18.3
			c-5.6-1.8-9.9-6.2-11.7-11.8c-1.8-5.6-0.6-11.6,2.9-16.3c21.1-27.3,49.8-48.4,83.1-60.1c5.5-2,11.7-1.1,16.5,2.2
			c4.8,3.4,7.7,8.8,7.7,14.7v59.2c0,6.4-3.4,12.3-8.9,15.5c-5.4,3.1-10.4,6.8-15,11C81.1,292.4,74.3,293.8,68.2,291.8z M209.4,515.4
			c-1.9,5.5-6.3,9.8-11.9,11.5c-16.3,4.9-33.5,7.5-51.5,7.5s-35.1-2.6-51.4-7.5c-5.6-1.7-10.1-5.9-12-11.5
			c-1.9-5.5-0.9-11.6,2.5-16.3l34.9-47.8c3.8-5.2,10.2-8,16.6-7.3c3.1,0.3,6.2,0.5,9.3,0.5s6.3-0.2,9.3-0.5
			c6.5-0.7,12.8,2.1,16.6,7.3l34.9,47.8C210.3,503.8,211.3,509.9,209.4,515.4z M223.9,291.8c-6.2,2-13,0.5-17.8-3.8
			c-4.6-4.1-9.6-7.9-15-11c-5.5-3.2-8.9-9.1-8.9-15.5v-59.2c0-5.8,2.9-11.3,7.7-14.7c4.8-3.4,10.9-4.2,16.5-2.3
			c33.3,11.7,62,32.8,83.1,60.1c3.6,4.6,4.7,10.7,2.9,16.3c-1.7,5.6-6.1,10-11.7,11.8L223.9,291.8z M294.9,456.4
			c-3.3,4.8-8.8,7.7-14.7,7.8c-5.9,0-11.4-2.7-14.8-7.4l-35.1-48c-3.8-5.2-4.5-12-1.9-17.8c2.5-5.5,4.3-11.4,5.6-17.4
			c1.3-6.3,6-11.4,12.1-13.4l61-19.7c4.6-1.5,9.6-0.7,13.5,2.1c3.9,2.8,6.2,7.3,6.2,12.1C326.9,392.5,315,427.5,294.9,456.4z"/>
	</g>
</g>
</svg>
