<?xml version="1.0" encoding="utf-8"?>
<!-- Generator: Adobe Illustrator 19.0.0, SVG Export Plug-In . SVG Version: 6.00 Build 0)  -->
<svg version="1.1" id="Layer_2" xmlns="http://www.w3.org/2000/svg" xmlns:xlink="http://www.w3.org/1999/xlink" x="0px" y="0px"
	 viewBox="134 -12.1 864 864" style="enable-background:new 134 -12.1 864 864;" xml:space="preserve">
<style type="text/css">
	.st0{fill:#FFFFFF;}
	.st1{fill:#E84700;}
</style>
<circle cx="566" cy="419.9" r="432"/>
<g>
	<path class="st0" d="M723.1,452c-14.9,73.1-79.6,128.1-157.1,128.1s-142.2-55-157.1-128.1H186.1C202.5,647.5,366.3,801.1,566,801.1
		S929.5,647.5,945.9,452L723.1,452L723.1,452z"/>
	<path class="st0" d="M566,307.7c-61.9,0-112.2,50.2-112.2,112.2c0,61.9,50.2,112.2,112.2,112.2s112.2-50.2,112.2-112.2
		S628,307.7,566,307.7z M566,475.2c-30.6,0-55.3-24.8-55.3-55.3c0-30.6,24.8-55.3,55.3-55.3c30.6,0,55.3,24.8,55.3,55.3
		C621.3,450.5,596.6,475.2,566,475.2z"/>
</g>
<path class="st1" d="M566,259.6c77.5,0,142.2,55,157.1,128.1h222.8c-16.4-195.5-180.2-349-379.9-349S202.5,192.3,186.1,387.8h222.8
	C423.8,314.6,488.5,259.6,566,259.6z"/>
</svg>
