<?xml version="1.0" encoding="utf-8"?>
<!-- Generator: Adobe Illustrator 19.0.0, SVG Export Plug-In . SVG Version: 6.00 Build 0)  -->
<svg version="1.1" id="Ebene_1" xmlns="http://www.w3.org/2000/svg" xmlns:xlink="http://www.w3.org/1999/xlink" x="0px" y="0px"
	 viewBox="-219 279.7 270 150" style="enable-background:new -219 279.7 270 150;" xml:space="preserve">
<style type="text/css">
	.st0{fill:#C4C4C4;}
	.st1{fill:#454545;}
</style>
<g id="_x23_f1f1f1ff">
	<path class="st0" d="M-219,279.7H51v150h-270V279.7 M-156.7,334.7c0,11,0,22,0,33c1.2,0,2.3,0,3.5,0c0.1-4.4-0.2-8.8,0.1-13.1
		c0.1-3.5,3.6-6.5,7.1-6.2c1.9,0.4,3.1,2.3,3.2,4.2c0.3,5,0,10.1,0.1,15.1c1.1,0,2.3,0,3.4,0c-0.1-5.6,0.3-11.1-0.2-16.7
		c-0.3-3.3-3.3-6-6.6-5.8c-3,0-5.2,2.2-7.2,4c0.1-4.8-0.2-9.7,0.4-14.5C-154.1,334.7-155.4,334.7-156.7,334.7 M-24.8,334.8
		c-3.3,0.8-1.6,6,1.6,4.8C-20,338.8-21.7,333.6-24.8,334.8 M-175.1,339.8c-0.1,1.9-0.2,3.9-0.2,5.8c-1.8,0-3.5,0-5.3,0
		c0,0.7,0,2.2,0,2.9c1.7,0,3.4,0,5.1,0c-0.1,4-0.6,8.1-0.5,12.1c0.1,2.5,1,5.4,3.5,6.4c3.4,1.5,7.1-0.2,10.1-2
		c-0.3-0.6-1-1.9-1.3-2.5c-2.4,1.1-6.4,3-8.1-0.2c-1.3-4.5-0.3-9.2-0.3-13.8c2.5-0.1,4.9-0.1,7.4-0.2c0-0.7,0-2.1,0-2.9
		c-2.4,0-4.8,0-7.2,0c0.2-2.2,0.4-4.5,0.7-6.7C-172.2,339.2-174.2,339.6-175.1,339.8 M-131.3,345.7c0,7.3,0,14.6,0,22
		c0.9,0,2.7,0,3.6,0c0.1-4.3-0.3-8.6,0.2-12.8c0.8-3.4,3.8-6.7,7.5-6.6c1.9-0.1,3.1,1.4,4.6,2.3c0.4-0.8,1.2-2.4,1.5-3.3
		c-4.3-3.5-10.7-2.4-13.9,1.9c0-0.9,0.1-2.7,0.2-3.6C-128.5,345.7-130.4,345.7-131.3,345.7 M-103.2,367c4.2,1.5,9.1,0.5,12.1-2.8
		c-0.5-0.4-1.4-1.3-1.9-1.7c-2.7,1.9-6.2,3.2-9.3,1.4c-2.8-1.2-3.5-4.5-4.3-7.1c5.4-0.6,10.8-0.1,16.2-0.5c-0.3-3-0.5-6.4-2.7-8.6
		c-2.5-2.5-6.5-3.1-9.8-2C-111.9,348.5-112.2,364-103.2,367 M-84.7,351.1c-1.6,4.4-1.5,9.9,1.7,13.5c4.2,4.4,11.9,4.1,15.9-0.3
		c-0.5-0.4-1.4-1.3-1.9-1.7c-2.7,1.9-6.2,3.2-9.3,1.4c-3-1.3-3.6-4.6-4.3-7.4c5.3-0.1,10.7,0,16-0.1c-0.1-3.3-0.4-7-3.1-9.3
		C-74.4,343.3-82.5,345.3-84.7,351.1 M-34.1,345.7c0,0.7,0,2.1,0.1,2.8c2.8,0.1,5.5,0.1,8.3,0.2c-0.1,6,0.1,12,0,18
		c0.1,2.3-0.9,4.9-3.4,5.6c-2.6,1.1-4.9-0.9-6.7-2.5c-0.7,1-1.4,2-2,3c2,1.5,4.2,3.2,6.9,2.9c4,0.2,8.1-2.7,8.5-6.9
		c0.5-7.7,0.1-15.4,0.2-23.1C-26.2,345.7-30.2,345.6-34.1,345.7 M-9.6,347c-2.4,1.5-3,5.3-1,7.3c3.2,3.3,8.5,2.7,11.8,5.7
		c1.5,2.4-1.3,4.3-3.4,4.6c-3.6,0.8-7-1.2-9.6-3.5c-0.5,1.2-0.9,2.4-1.4,3.6c4.1,2.8,9.4,4.2,14.1,2.2c3.1-1.2,5.6-5.2,3.6-8.3
		c-2.7-4.1-8.6-3.3-12.1-6.2c-1.2-0.8-0.7-2.9,0.5-3.4c3.4-2.3,7.7-0.3,10.1,2.6c0.6-1,1.3-2,2-3C1.1,344.9-5.2,343.8-9.6,347
		 M-53.8,362.2c-3.5,1.5-0.8,7,2.6,5.2C-47.8,365.9-50.6,360.6-53.8,362.2z"/>
	<path class="st0" d="M-106.5,353.5c1.1-2.8,3.2-5.8,6.6-5.7c3.3-0.2,5.6,2.6,6.1,5.7C-98,353.7-102.3,353.7-106.5,353.5z"/>
	<path class="st0" d="M-82.5,353.5c1.1-2.8,3.2-5.7,6.5-5.7c3.3-0.3,5.7,2.6,6.2,5.7C-74,353.7-78.3,353.7-82.5,353.5z"/>
</g>
<g id="_x23_454545ff">
	<path class="st1" d="M-156.7,334.7c1.3,0,2.6,0,3.9,0c-0.6,4.8-0.3,9.6-0.4,14.5c2.1-1.8,4.3-4,7.2-4c3.3-0.2,6.3,2.6,6.6,5.8
		c0.5,5.5,0.1,11.1,0.2,16.7c-1.1,0-2.3,0-3.4,0c-0.1-5,0.2-10-0.1-15.1c0-1.9-1.2-3.8-3.2-4.2c-3.5-0.4-7,2.6-7.1,6.2
		c-0.3,4.4,0,8.7-0.1,13.1c-1.2,0-2.3,0-3.5,0C-156.7,356.7-156.7,345.7-156.7,334.7z"/>
	<path class="st1" d="M-24.8,334.8c3-1.1,4.7,4,1.6,4.8C-26.3,340.7-28.1,335.5-24.8,334.8z"/>
	<path class="st1" d="M-175.1,339.8c1-0.2,2.9-0.7,3.9-0.9c-0.2,2.2-0.5,4.5-0.7,6.7c2.4,0,4.8,0,7.2,0c0,0.7,0,2.1,0,2.9
		c-2.5,0.1-4.9,0.1-7.4,0.2c0,4.6-0.9,9.3,0.3,13.8c1.7,3.2,5.7,1.3,8.1,0.2c0.3,0.6,0.9,1.9,1.3,2.5c-3,1.8-6.6,3.5-10.1,2
		c-2.5-1-3.4-3.9-3.5-6.4c-0.1-4,0.4-8.1,0.5-12.1c-1.7,0-3.4,0-5.1,0c0-0.7,0-2.2,0-2.9c1.8,0,3.5,0,5.3,0
		C-175.3,343.7-175.2,341.8-175.1,339.8z"/>
	<path class="st1" d="M-131.3,345.7c0.9,0,2.8,0,3.7,0c-0.1,0.9-0.1,2.7-0.2,3.6c3.2-4.4,9.6-5.5,13.9-1.9c-0.4,0.8-1.2,2.4-1.5,3.3
		c-1.4-0.9-2.7-2.4-4.6-2.3c-3.7-0.1-6.7,3.2-7.5,6.6c-0.5,4.3-0.1,8.6-0.2,12.8c-0.9,0-2.7,0-3.6,0
		C-131.3,360.3-131.3,353-131.3,345.7z"/>
	<path class="st1" d="M-103.2,367c-9.1-3.1-8.7-18.5,0.3-21.4c3.3-1.1,7.3-0.5,9.8,2c2.2,2.3,2.4,5.6,2.7,8.6
		c-5.4,0.4-10.8-0.1-16.2,0.5c0.8,2.7,1.4,5.9,4.3,7.1c3.1,1.8,6.6,0.5,9.3-1.4c0.5,0.4,1.4,1.3,1.9,1.7
		C-94.1,367.5-99,368.6-103.2,367 M-106.5,353.5c4.2,0.2,8.5,0.2,12.7,0c-0.5-3-2.8-5.9-6.1-5.7
		C-103.3,347.8-105.4,350.7-106.5,353.5z"/>
	<path class="st1" d="M-84.7,351.1c2.2-5.8,10.4-7.8,15.1-3.9c2.7,2.3,3,6,3.1,9.3c-5.3,0.1-10.7,0-16,0.1c0.7,2.8,1.3,6.2,4.3,7.4
		c3.1,1.7,6.6,0.5,9.3-1.4c0.5,0.4,1.4,1.3,1.9,1.7c-4,4.5-11.7,4.7-15.9,0.3C-86.2,361-86.3,355.4-84.7,351.1 M-82.5,353.5
		c4.2,0.2,8.5,0.2,12.7,0c-0.5-3.1-2.9-5.9-6.2-5.7C-79.3,347.8-81.4,350.7-82.5,353.5z"/>
	<path class="st1" d="M-34.1,345.7c4-0.1,7.9-0.1,11.9-0.1c-0.1,7.7,0.3,15.4-0.2,23.1c-0.4,4.2-4.5,7.1-8.5,6.9
		c-2.7,0.2-4.9-1.4-6.9-2.9c0.7-1,1.4-2,2-3c1.8,1.6,4.1,3.6,6.7,2.5c2.4-0.7,3.4-3.3,3.4-5.6c0.1-6,0-12,0-18
		c-2.8,0-5.6-0.1-8.3-0.2C-34.1,347.8-34.1,346.4-34.1,345.7z"/>
	<path class="st1" d="M-9.6,347c4.4-3.2,10.7-2,14.6,1.5c-0.7,1-1.3,2-2,3c-2.4-2.9-6.7-4.9-10.1-2.6c-1.3,0.5-1.8,2.6-0.5,3.4
		c3.6,2.9,9.4,2.1,12.1,6.2c2,3.1-0.4,7.1-3.6,8.3c-4.7,2.1-10.1,0.6-14.1-2.2c0.5-1.2,1-2.4,1.4-3.6c2.6,2.4,5.9,4.3,9.6,3.5
		c2.1-0.3,4.9-2.2,3.4-4.6c-3.3-3-8.6-2.4-11.8-5.7C-12.7,352.2-12.1,348.5-9.6,347z"/>
	<path class="st1" d="M-53.8,362.2c3.2-1.6,6,3.6,2.6,5.2C-54.6,369.3-57.3,363.7-53.8,362.2z"/>
</g>
</svg>
