<?xml version="1.0" encoding="utf-8"?>
<!-- Generator: Adobe Illustrator 19.0.0, SVG Export Plug-In . SVG Version: 6.00 Build 0)  -->
<svg version="1.0" id="Layer_1" xmlns="http://www.w3.org/2000/svg" xmlns:xlink="http://www.w3.org/1999/xlink" x="0px" y="0px"
	 viewBox="-98 98.7 512 512" style="enable-background:new -98 98.7 512 512;" xml:space="preserve">
<style type="text/css">
	.st0{fill:#563D7C;}
	.st1{fill:#FFFFFF;}
</style>
<g id="solid" xmlns:inkscape="http://www.inkscape.org/namespaces/inkscape" xmlns:cc="http://creativecommons.org/ns#" xmlns:dc="http://purl.org/dc/elements/1.1/" xmlns:svg="http://www.w3.org/2000/svg" xmlns:sodipodi="http://sodipodi.sourceforge.net/DTD/sodipodi-0.dtd" xmlns:rdf="http://www.w3.org/1999/02/22-rdf-syntax-ns#" inkscape:version="0.48.1 r9760" sodipodi:docname="twitter_bootstrap_logo.svg">
	<path id="bg" class="st0" d="M412.5,522.9c0,46.5-38.1,84.5-84.8,84.5h-339c-46.6,0-84.8-38-84.8-84.5V184.8
		c0-46.5,38.1-84.5,84.8-84.5h339c46.6,0,84.8,38,84.8,84.5L412.5,522.9L412.5,522.9z"/>
	<g id="B">
		<path class="st1" d="M42.2,210.5h144.2c26.6,0,47.9,6,64,18.2s24.1,30.5,24.1,55.1c0,14.9-3.7,27.7-11,38.3
			c-7.3,10.6-17.8,18.9-31.4,24.7v0.8c18.3,3.9,32.2,12.5,41.5,25.9c9.4,13.4,14.1,30.2,14.1,50.4c0,11.6-2.1,22.5-6.2,32.5
			c-4.2,10.1-10.6,18.8-19.5,26.1c-8.9,7.3-20.2,13.1-34.1,17.4c-13.9,4.3-30.3,6.5-49.4,6.5H42.2L42.2,210.5L42.2,210.5z
			 M94.1,334.4h84.8c12.5,0,22.8-3.5,31.2-10.6c8.3-7.1,12.5-17.2,12.5-30.5c0-14.9-3.7-25.4-11.2-31.5c-7.5-6-18.3-9.1-32.4-9.1
			H94.1L94.1,334.4L94.1,334.4z M94.1,464h91.8c15.8,0,28.1-4.1,36.7-12.3c8.7-8.1,13.1-19.7,13.1-34.6c0-14.7-4.3-25.9-13.1-33.8
			c-8.8-8-20.9-11.8-36.7-11.8H94.1V464z"/>
	</g>
</g>
</svg>
